<svg width="300" height="300" viewBox="0 0 300 300" fill="none" xmlns="http://www.w3.org/2000/svg">
<rect width="300" height="300" fill="white"/>
<path fill-rule="evenodd" clip-rule="evenodd" d="M121.08 216.625C118.543 216.625 116.513 214.595 116.513 212.058V161.138H109.154C88.0925 161.138 70.8375 178.393 70.8375 199.455C70.8375 220.516 88.0925 237.771 109.154 237.771L159.65 237.771L159.65 161.308H139.35V212.058C139.35 214.595 137.32 216.625 134.783 216.625H121.08ZM182.487 87.5508V138.47H189.846C210.908 138.47 228.163 121.215 228.163 100.154C228.163 79.0925 210.908 61.8375 189.846 61.8375H139.35V138.301H159.65L159.65 87.5508C159.65 85.0133 161.68 82.9833 164.217 82.9833L177.92 82.9833C180.457 82.9833 182.487 85.0133 182.487 87.5508ZM189.846 161.308H182.487L182.488 256.041C182.488 258.578 180.458 260.608 177.92 260.608H109.154C75.6587 260.608 48 233.203 48 199.455C48 165.96 75.6587 138.301 109.154 138.301H116.513V43.5675C116.513 41.03 118.543 39 121.08 39H189.846C223.341 39 251 66.405 251 100.154C251 133.649 223.341 161.308 189.846 161.308ZM194.492 204.581C187.825 208.43 187.825 218.053 194.492 221.902L235.542 245.602C242.208 249.451 250.542 244.64 250.542 236.942V189.541C250.542 181.843 242.208 177.032 235.542 180.881L194.492 204.581Z" fill="black"/>
</svg>
